<?xml version="1.0" encoding="UTF-8"?>
<svg xmlns="http://www.w3.org/2000/svg" viewBox="0 0 1360 1270" font-family="Inter, system-ui, sans-serif">
  <defs>
    <marker id="arrow" markerWidth="10" markerHeight="10" refX="9" refY="3" orient="auto">
      <path d="M0,0 L0,6 L9,3 z" fill="#e63946"/>
    </marker>
    <style>
      .tbl-head { fill: #e63946; }
      .tbl-head-yellow { fill: #f4b01d; }
      .tbl-body { fill: white; stroke: #d4d4d8; stroke-width: 1.5; }
      .tbl-title { fill: white; font-weight: 700; font-size: 14px; }
      .col-name { fill: #1f2937; font-size: 11px; font-family: monospace; }
      .col-type { fill: #6b7280; font-size: 10px; font-family: monospace; text-anchor: end; }
      .pk { fill: #e63946; font-weight: 700; }
      .fk { fill: #f4b01d; font-weight: 700; }
      .rel { stroke: #e63946; stroke-width: 2; fill: none; }
      .rel-label { fill: #e63946; font-size: 10px; font-weight: 600; }
      .title-main { fill: #1f2937; font-size: 22px; font-weight: 700; }
      .subtitle { fill: #6b7280; font-size: 12px; }
      .legend-box { fill: white; stroke: #d4d4d8; }
    </style>
  </defs>

  <rect width="1360" height="1270" fill="#fafafa"/>

  <!-- Title -->
  <text x="40" y="40" class="title-main">Armazém Express · Modelo Entidade-Relação</text>
  <text x="40" y="62" class="subtitle">Base de dados SQLite · 11 tabelas · Multi-tenant via company_id · Integração Stripe</text>

  <!-- ========== PLANS ========== -->
  <g transform="translate(40, 90)">
    <rect width="250" height="30" rx="8" class="tbl-head-yellow"/>
    <text x="12" y="20" class="tbl-title" fill="#1a1a1a">📋 plans</text>
    <rect y="30" width="250" height="195" class="tbl-body"/>
    <g>
      <text x="12" y="50" class="col-name pk">🔑 id</text>             <text x="238" y="50" class="col-type">INTEGER</text>
      <text x="12" y="70" class="col-name">name</text>                  <text x="238" y="70" class="col-type">TEXT UNIQUE</text>
      <text x="12" y="90" class="col-name">price</text>                 <text x="238" y="90" class="col-type">REAL</text>
      <text x="12" y="110" class="col-name">max_products</text>         <text x="238" y="110" class="col-type">INT</text>
      <text x="12" y="130" class="col-name">max_employees</text>        <text x="238" y="130" class="col-type">INT</text>
      <text x="12" y="150" class="col-name">features</text>             <text x="238" y="150" class="col-type">JSON</text>
      <text x="12" y="170" class="col-name">description</text>          <text x="238" y="170" class="col-type">TEXT</text>
      <text x="12" y="190" class="col-name">stripe_price_id</text>      <text x="238" y="190" class="col-type">TEXT</text>
      <text x="12" y="210" class="col-name">created_at</text>           <text x="238" y="210" class="col-type">DATETIME</text>
    </g>
  </g>

  <!-- ========== COMPANIES ========== -->
  <g transform="translate(370, 90)">
    <rect width="250" height="30" rx="8" class="tbl-head"/>
    <text x="12" y="20" class="tbl-title">🏢 companies</text>
    <rect y="30" width="250" height="215" class="tbl-body"/>
    <g>
      <text x="12" y="50" class="col-name pk">🔑 id</text>                   <text x="238" y="50" class="col-type">INTEGER</text>
      <text x="12" y="70" class="col-name">name</text>                        <text x="238" y="70" class="col-type">TEXT UNIQUE</text>
      <text x="12" y="90" class="col-name">email</text>                       <text x="238" y="90" class="col-type">TEXT UNIQUE</text>
      <text x="12" y="110" class="col-name fk">🔗 plan_id</text>              <text x="238" y="110" class="col-type">INT</text>
      <text x="12" y="130" class="col-name">subscription_status</text>        <text x="238" y="130" class="col-type">TEXT</text>
      <text x="12" y="150" class="col-name">subscription_start</text>         <text x="238" y="150" class="col-type">DATETIME</text>
      <text x="12" y="170" class="col-name">subscription_end</text>           <text x="238" y="170" class="col-type">DATETIME</text>
      <text x="12" y="190" class="col-name">stripe_customer_id</text>         <text x="238" y="190" class="col-type">TEXT</text>
      <text x="12" y="210" class="col-name">stripe_subscription_id</text>     <text x="238" y="210" class="col-type">TEXT</text>
      <text x="12" y="230" class="col-name">created_at</text>                  <text x="238" y="230" class="col-type">DATETIME</text>
    </g>
  </g>

  <!-- ========== USERS ========== -->
  <g transform="translate(700, 90)">
    <rect width="250" height="30" rx="8" class="tbl-head"/>
    <text x="12" y="20" class="tbl-title">👤 users</text>
    <rect y="30" width="250" height="175" class="tbl-body"/>
    <g>
      <text x="12" y="50" class="col-name pk">🔑 id</text>               <text x="238" y="50" class="col-type">INTEGER</text>
      <text x="12" y="70" class="col-name fk">🔗 company_id</text>       <text x="238" y="70" class="col-type">INT</text>
      <text x="12" y="90" class="col-name">email</text>                   <text x="238" y="90" class="col-type">TEXT UNIQUE</text>
      <text x="12" y="110" class="col-name">password_hash</text>          <text x="238" y="110" class="col-type">TEXT</text>
      <text x="12" y="130" class="col-name">name</text>                    <text x="238" y="130" class="col-type">TEXT</text>
      <text x="12" y="150" class="col-name">role</text>                    <text x="238" y="150" class="col-type">TEXT</text>
      <text x="12" y="170" class="col-name">active</text>                  <text x="238" y="170" class="col-type">INT</text>
      <text x="12" y="190" class="col-name">created_at</text>              <text x="238" y="190" class="col-type">DATETIME</text>
    </g>
  </g>

  <!-- ========== CHECKOUT_CREDENTIALS (standalone) ========== -->
  <g transform="translate(1030, 90)">
    <rect width="250" height="30" rx="8" class="tbl-head-yellow"/>
    <text x="12" y="20" class="tbl-title" fill="#1a1a1a">🔐 checkout_credentials</text>
    <rect y="30" width="250" height="135" class="tbl-body"/>
    <g>
      <text x="12" y="50" class="col-name pk">🔑 session_id</text>       <text x="238" y="50" class="col-type">TEXT</text>
      <text x="12" y="70" class="col-name">email</text>                   <text x="238" y="70" class="col-type">TEXT</text>
      <text x="12" y="90" class="col-name">password</text>                <text x="238" y="90" class="col-type">TEXT</text>
      <text x="12" y="110" class="col-name">company_name</text>            <text x="238" y="110" class="col-type">TEXT</text>
      <text x="12" y="130" class="col-name">plan_name</text>               <text x="238" y="130" class="col-type">TEXT</text>
      <text x="12" y="150" class="col-name">created_at</text>              <text x="238" y="150" class="col-type">DATETIME</text>
    </g>
    <text x="0" y="185" font-size="10" fill="#9ca3af" font-style="italic">tabela temporária · sem FK (credenciais pós-checkout)</text>
  </g>

  <!-- ========== CATEGORIES ========== -->
  <g transform="translate(40, 410)">
    <rect width="250" height="30" rx="8" class="tbl-head-yellow"/>
    <text x="12" y="20" class="tbl-title" fill="#1a1a1a">🏷️ categories</text>
    <rect y="30" width="250" height="95" class="tbl-body"/>
    <g>
      <text x="12" y="50" class="col-name pk">🔑 id</text>             <text x="238" y="50" class="col-type">INTEGER</text>
      <text x="12" y="70" class="col-name fk">🔗 company_id</text>     <text x="238" y="70" class="col-type">INT</text>
      <text x="12" y="90" class="col-name">name</text>                  <text x="238" y="90" class="col-type">TEXT</text>
      <text x="12" y="110" class="col-name">created_at</text>           <text x="238" y="110" class="col-type">DATETIME</text>
    </g>
  </g>

  <!-- ========== PRODUCTS ========== -->
  <g transform="translate(370, 410)">
    <rect width="270" height="30" rx="8" class="tbl-head"/>
    <text x="12" y="20" class="tbl-title">📦 products</text>
    <rect y="30" width="270" height="295" class="tbl-body"/>
    <g>
      <text x="12" y="50" class="col-name pk">🔑 id</text>              <text x="258" y="50" class="col-type">INTEGER</text>
      <text x="12" y="70" class="col-name fk">🔗 company_id</text>      <text x="258" y="70" class="col-type">INT</text>
      <text x="12" y="90" class="col-name">sku</text>                    <text x="258" y="90" class="col-type">TEXT UNIQUE</text>
      <text x="12" y="110" class="col-name">name</text>                  <text x="258" y="110" class="col-type">TEXT</text>
      <text x="12" y="130" class="col-name">description</text>           <text x="258" y="130" class="col-type">TEXT</text>
      <text x="12" y="150" class="col-name">category</text>              <text x="258" y="150" class="col-type">TEXT</text>
      <text x="12" y="170" class="col-name">quantity</text>              <text x="258" y="170" class="col-type">INT</text>
      <text x="12" y="190" class="col-name">min_stock</text>             <text x="258" y="190" class="col-type">INT</text>
      <text x="12" y="210" class="col-name">price</text>                 <text x="258" y="210" class="col-type">REAL</text>
      <text x="12" y="230" class="col-name">shelf</text>                 <text x="258" y="230" class="col-type">TEXT</text>
      <text x="12" y="250" class="col-name">qr_code</text>               <text x="258" y="250" class="col-type">TEXT UNIQUE</text>
      <text x="12" y="270" class="col-name">supplier</text>              <text x="258" y="270" class="col-type">TEXT</text>
      <text x="12" y="290" class="col-name">created_at</text>            <text x="258" y="290" class="col-type">DATETIME</text>
      <text x="12" y="310" class="col-name">updated_at</text>            <text x="258" y="310" class="col-type">DATETIME</text>
    </g>
  </g>

  <!-- ========== ORDERS ========== -->
  <g transform="translate(710, 410)">
    <rect width="270" height="30" rx="8" class="tbl-head"/>
    <text x="12" y="20" class="tbl-title">🚚 orders</text>
    <rect y="30" width="270" height="315" class="tbl-body"/>
    <g>
      <text x="12" y="50" class="col-name pk">🔑 id</text>                    <text x="258" y="50" class="col-type">INTEGER</text>
      <text x="12" y="70" class="col-name fk">🔗 company_id</text>            <text x="258" y="70" class="col-type">INT</text>
      <text x="12" y="90" class="col-name">tracking_number</text>              <text x="258" y="90" class="col-type">TEXT UNIQUE</text>
      <text x="12" y="110" class="col-name">recipient_name</text>              <text x="258" y="110" class="col-type">TEXT</text>
      <text x="12" y="130" class="col-name">recipient_address</text>           <text x="258" y="130" class="col-type">TEXT</text>
      <text x="12" y="150" class="col-name">recipient_city</text>              <text x="258" y="150" class="col-type">TEXT</text>
      <text x="12" y="170" class="col-name">recipient_postal_code</text>       <text x="258" y="170" class="col-type">TEXT</text>
      <text x="12" y="190" class="col-name">recipient_phone</text>             <text x="258" y="190" class="col-type">TEXT</text>
      <text x="12" y="210" class="col-name">recipient_email</text>             <text x="258" y="210" class="col-type">TEXT</text>
      <text x="12" y="230" class="col-name">status</text>                       <text x="258" y="230" class="col-type">TEXT</text>
      <text x="12" y="250" class="col-name">total_value</text>                  <text x="258" y="250" class="col-type">REAL</text>
      <text x="12" y="270" class="col-name">notes</text>                        <text x="258" y="270" class="col-type">TEXT</text>
      <text x="12" y="290" class="col-name fk">🔗 created_by</text>            <text x="258" y="290" class="col-type">INT</text>
      <text x="12" y="310" class="col-name">created_at</text>                   <text x="258" y="310" class="col-type">DATETIME</text>
      <text x="12" y="330" class="col-name">updated_at</text>                   <text x="258" y="330" class="col-type">DATETIME</text>
    </g>
  </g>

  <!-- ========== NOTIFICATIONS ========== -->
  <g transform="translate(1030, 410)">
    <rect width="250" height="30" rx="8" class="tbl-head"/>
    <text x="12" y="20" class="tbl-title">🔔 notifications</text>
    <rect y="30" width="250" height="175" class="tbl-body"/>
    <g>
      <text x="12" y="50" class="col-name pk">🔑 id</text>             <text x="238" y="50" class="col-type">INTEGER</text>
      <text x="12" y="70" class="col-name fk">🔗 company_id</text>     <text x="238" y="70" class="col-type">INT</text>
      <text x="12" y="90" class="col-name">user_id</text>               <text x="238" y="90" class="col-type">INT</text>
      <text x="12" y="110" class="col-name">type</text>                  <text x="238" y="110" class="col-type">TEXT</text>
      <text x="12" y="130" class="col-name">title</text>                 <text x="238" y="130" class="col-type">TEXT</text>
      <text x="12" y="150" class="col-name">message</text>               <text x="238" y="150" class="col-type">TEXT</text>
      <text x="12" y="170" class="col-name">read</text>                  <text x="238" y="170" class="col-type">INT</text>
      <text x="12" y="190" class="col-name">created_at</text>            <text x="238" y="190" class="col-type">DATETIME</text>
    </g>
  </g>

  <!-- ========== STOCK_MOVEMENTS ========== -->
  <g transform="translate(40, 800)">
    <rect width="270" height="30" rx="8" class="tbl-head-yellow"/>
    <text x="12" y="20" class="tbl-title" fill="#1a1a1a">📊 stock_movements</text>
    <rect y="30" width="270" height="175" class="tbl-body"/>
    <g>
      <text x="12" y="50" class="col-name pk">🔑 id</text>             <text x="258" y="50" class="col-type">INTEGER</text>
      <text x="12" y="70" class="col-name fk">🔗 company_id</text>     <text x="258" y="70" class="col-type">INT</text>
      <text x="12" y="90" class="col-name fk">🔗 product_id</text>     <text x="258" y="90" class="col-type">INT</text>
      <text x="12" y="110" class="col-name">type</text>                 <text x="258" y="110" class="col-type">TEXT</text>
      <text x="12" y="130" class="col-name">quantity</text>             <text x="258" y="130" class="col-type">INT</text>
      <text x="12" y="150" class="col-name">reason</text>               <text x="258" y="150" class="col-type">TEXT</text>
      <text x="12" y="170" class="col-name fk">🔗 user_id</text>        <text x="258" y="170" class="col-type">INT</text>
      <text x="12" y="190" class="col-name">created_at</text>           <text x="258" y="190" class="col-type">DATETIME</text>
    </g>
  </g>

  <!-- ========== ORDER_ITEMS ========== -->
  <g transform="translate(370, 800)">
    <rect width="250" height="30" rx="8" class="tbl-head-yellow"/>
    <text x="12" y="20" class="tbl-title" fill="#1a1a1a">🛒 order_items</text>
    <rect y="30" width="250" height="135" class="tbl-body"/>
    <g>
      <text x="12" y="50" class="col-name pk">🔑 id</text>             <text x="238" y="50" class="col-type">INTEGER</text>
      <text x="12" y="70" class="col-name fk">🔗 order_id</text>       <text x="238" y="70" class="col-type">INT</text>
      <text x="12" y="90" class="col-name fk">🔗 product_id</text>     <text x="238" y="90" class="col-type">INT</text>
      <text x="12" y="110" class="col-name">product_name</text>         <text x="238" y="110" class="col-type">TEXT</text>
      <text x="12" y="130" class="col-name">quantity</text>             <text x="238" y="130" class="col-type">INT</text>
      <text x="12" y="150" class="col-name">unit_price</text>           <text x="238" y="150" class="col-type">REAL</text>
    </g>
  </g>

  <!-- ========== TRACKING_EVENTS ========== -->
  <g transform="translate(710, 800)">
    <rect width="250" height="30" rx="8" class="tbl-head"/>
    <text x="12" y="20" class="tbl-title">📍 tracking_events</text>
    <rect y="30" width="250" height="155" class="tbl-body"/>
    <g>
      <text x="12" y="50" class="col-name pk">🔑 id</text>           <text x="238" y="50" class="col-type">INTEGER</text>
      <text x="12" y="70" class="col-name fk">🔗 order_id</text>     <text x="238" y="70" class="col-type">INT</text>
      <text x="12" y="90" class="col-name">status</text>              <text x="238" y="90" class="col-type">TEXT</text>
      <text x="12" y="110" class="col-name">location</text>           <text x="238" y="110" class="col-type">TEXT</text>
      <text x="12" y="130" class="col-name">description</text>        <text x="238" y="130" class="col-type">TEXT</text>
      <text x="12" y="150" class="col-name fk">🔗 user_id</text>      <text x="238" y="150" class="col-type">INT</text>
      <text x="12" y="170" class="col-name">created_at</text>         <text x="238" y="170" class="col-type">DATETIME</text>
    </g>
  </g>

  <!-- ========== RELATIONSHIPS ========== -->
  <!-- plans → companies -->
  <path d="M 290,200 L 370,200" class="rel" marker-end="url(#arrow)"/>
  <text x="305" y="193" class="rel-label">1 : N</text>

  <!-- companies → users -->
  <path d="M 620,180 L 700,180" class="rel" marker-end="url(#arrow)"/>
  <text x="635" y="173" class="rel-label">1 : N</text>

  <!-- companies → categories -->
  <path d="M 420,305 Q 250,360 165,410" class="rel" marker-end="url(#arrow)"/>
  <text x="250" y="360" class="rel-label">1 : N</text>

  <!-- companies → products -->
  <path d="M 495,305 L 505,410" class="rel" marker-end="url(#arrow)"/>
  <text x="510" y="375" class="rel-label">1 : N</text>

  <!-- companies → orders -->
  <path d="M 560,305 Q 720,360 845,410" class="rel" marker-end="url(#arrow)"/>
  <text x="690" y="360" class="rel-label">1 : N</text>

  <!-- companies → notifications -->
  <path d="M 620,200 Q 900,260 1120,410" class="rel" marker-end="url(#arrow)" stroke-dasharray="4,4"/>
  <text x="930" y="300" class="rel-label">1 : N</text>

  <!-- companies → stock_movements -->
  <path d="M 380,300 Q 180,560 170,800" class="rel" marker-end="url(#arrow)" stroke-dasharray="4,4"/>
  <text x="210" y="580" class="rel-label">1 : N</text>

  <!-- users → orders (created_by) -->
  <path d="M 825,265 Q 850,340 850,410" class="rel" marker-end="url(#arrow)"/>
  <text x="858" y="350" class="rel-label">1 : N</text>

  <!-- users → tracking_events -->
  <path d="M 790,265 Q 830,540 835,800" class="rel" marker-end="url(#arrow)" stroke-dasharray="4,4"/>
  <text x="845" y="560" class="rel-label">1 : N</text>

  <!-- users → stock_movements -->
  <path d="M 700,250 Q 460,520 310,830" class="rel" marker-end="url(#arrow)" stroke-dasharray="4,4"/>
  <text x="470" y="520" class="rel-label">1 : N</text>

  <!-- products → order_items -->
  <path d="M 505,705 L 495,800" class="rel" marker-end="url(#arrow)"/>
  <text x="510" y="760" class="rel-label">1 : N</text>

  <!-- products → stock_movements -->
  <path d="M 370,620 Q 320,710 310,800" class="rel" marker-end="url(#arrow)"/>
  <text x="320" y="720" class="rel-label">1 : N</text>

  <!-- orders → order_items -->
  <path d="M 710,640 Q 640,720 620,840" class="rel" marker-end="url(#arrow)"/>
  <text x="650" y="730" class="rel-label">1 : N</text>

  <!-- orders → tracking_events -->
  <path d="M 845,725 L 835,800" class="rel" marker-end="url(#arrow)"/>
  <text x="850" y="765" class="rel-label">1 : N</text>

  <!-- ========== LEGEND ========== -->
  <g transform="translate(40, 1040)">
    <rect width="1240" height="180" rx="12" class="legend-box"/>
    <text x="20" y="30" font-size="14" font-weight="700" fill="#1f2937">Legenda</text>

    <rect x="20" y="45" width="20" height="20" rx="4" fill="#e63946"/>
    <text x="50" y="60" font-size="12" fill="#1f2937">Tabela principal (dados de negócio)</text>

    <rect x="20" y="75" width="20" height="20" rx="4" fill="#f4b01d"/>
    <text x="50" y="90" font-size="12" fill="#1f2937">Tabela auxiliar (referência, pivot ou temporária)</text>

    <text x="360" y="60" font-size="12" fill="#e63946" font-weight="700">🔑 PK</text>
    <text x="410" y="60" font-size="12" fill="#1f2937">Chave primária (PRIMARY KEY)</text>

    <text x="360" y="90" font-size="12" fill="#f4b01d" font-weight="700">🔗 FK</text>
    <text x="410" y="90" font-size="12" fill="#1f2937">Chave estrangeira (FOREIGN KEY)</text>

    <text x="690" y="60" font-size="12" fill="#e63946" font-weight="700">1 : N</text>
    <text x="730" y="60" font-size="12" fill="#1f2937">Relação 1-para-N (um para muitos)</text>

    <line x1="690" y1="85" x2="730" y2="85" stroke="#e63946" stroke-width="2" stroke-dasharray="4,4"/>
    <text x="740" y="90" font-size="12" fill="#1f2937">Relação longa (atravessa o diagrama)</text>

    <text x="20" y="130" font-size="13" font-weight="700" fill="#e63946">🏢 Multi-tenancy:</text>
    <text x="20" y="150" font-size="11" fill="#1f2937">Todas as tabelas de negócio (users, categories, products, orders, stock_movements, notifications) têm company_id. Cada empresa só acede aos seus próprios dados, filtrados pelo JWT.</text>
    <text x="20" y="167" font-size="11" fill="#1f2937">Foreign keys com ON DELETE CASCADE: remover uma empresa remove toda a informação associada. WAL mode ativado para melhor concorrência.</text>

    <text x="20" y="195" font-size="11" fill="#6b7280" font-style="italic">💳 Stripe: plans.stripe_price_id, companies.stripe_customer_id e companies.stripe_subscription_id ligam cada subscrição ao Stripe. checkout_credentials guarda temporariamente as credenciais geradas após o pagamento.</text>
  </g>
</svg>
